<svg xmlns="http://www.w3.org/2000/svg" width="600" height="600" viewBox="0 0 600 600">
  <rect width="600" height="600" fill="#f8fafc"/>
  <rect x="40" y="40" width="520" height="520" rx="20" fill="#ffffff" stroke="#e2e8f0" stroke-width="2"/>
  <!-- wall -->
  <rect x="80" y="80" width="440" height="320" fill="#f1f5f9"/>
  <line x1="80" y1="80" x2="520" y2="80" stroke="#cbd5e1" stroke-width="4"/>
  <!-- wall-hung WC bowl -->
  <ellipse cx="300" cy="300" rx="95" ry="72" fill="#ffffff" stroke="#94a3b8" stroke-width="3"/>
  <ellipse cx="300" cy="295" rx="58" ry="38" fill="#e2e8f0" stroke="#94a3b8" stroke-width="2"/>
  <!-- rimless sleek profile -->
  <path d="M205 285 Q300 240 395 285" fill="none" stroke="#64748b" stroke-width="2"/>
  <!-- mounting bracket -->
  <rect x="270" y="140" width="60" height="70" rx="6" fill="#cbd5e1"/>
  <rect x="285" y="155" width="30" height="40" rx="4" fill="#94a3b8"/>
  <!-- flush plate hint -->
  <rect x="420" y="120" width="48" height="72" rx="8" fill="#ffffff" stroke="#cbd5e1" stroke-width="2"/>
  <rect x="432" y="138" width="24" height="18" rx="4" fill="#e2e8f0"/>
  <rect x="432" y="162" width="24" height="18" rx="4" fill="#e2e8f0"/>
  <text x="300" y="470" text-anchor="middle" fill="#334155" font-family="system-ui,sans-serif" font-size="18" font-weight="600">Rimless wall-hung WC</text>
  <text x="300" y="498" text-anchor="middle" fill="#64748b" font-family="system-ui,sans-serif" font-size="14">WC-RH-01 · Faisal</text>
</svg>
