<svg xmlns="http://www.w3.org/2000/svg" width="960" height="720" viewBox="0 0 960 720">
  <rect width="960" height="720" fill="#f8fafc"/>
  <rect x="48" y="48" width="864" height="624" rx="24" fill="#ffffff" stroke="#e2e8f0" stroke-width="2"/>
  <rect x="88" y="88" width="784" height="360" fill="#f1f5f9"/>
  <rect x="88" y="88" width="784" height="8" fill="#cbd5e1"/>
  <!-- wall-hung WC -->
  <ellipse cx="280" cy="300" rx="88" ry="64" fill="#ffffff" stroke="#94a3b8" stroke-width="3"/>
  <ellipse cx="280" cy="295" rx="52" ry="34" fill="#e2e8f0" stroke="#94a3b8" stroke-width="2"/>
  <rect x="252" y="168" width="56" height="58" rx="6" fill="#cbd5e1"/>
  <!-- basin mixer -->
  <rect x="520" y="220" width="120" height="16" rx="4" fill="#64748b"/>
  <rect x="568" y="236" width="24" height="90" fill="#94a3b8"/>
  <ellipse cx="580" cy="340" rx="70" ry="22" fill="#ffffff" stroke="#94a3b8" stroke-width="2"/>
  <ellipse cx="580" cy="332" rx="42" ry="14" fill="#e2e8f0"/>
  <!-- concealed frame hint -->
  <rect x="700" y="200" width="100" height="160" rx="8" fill="#ffffff" stroke="#cbd5e1" stroke-width="2"/>
  <rect x="718" y="220" width="64" height="36" rx="4" fill="#e2e8f0"/>
  <rect x="718" y="268" width="64" height="36" rx="4" fill="#e2e8f0"/>
  <!-- floor tile lines -->
  <line x1="88" y1="448" x2="872" y2="448" stroke="#e2e8f0" stroke-width="2"/>
  <line x1="200" y1="448" x2="200" y2="600" stroke="#e2e8f0" stroke-width="1"/>
  <line x1="400" y1="448" x2="400" y2="600" stroke="#e2e8f0" stroke-width="1"/>
  <line x1="600" y1="448" x2="600" y2="600" stroke="#e2e8f0" stroke-width="1"/>
  <text x="480" y="660" text-anchor="middle" fill="#334155" font-family="Georgia,serif" font-size="28" font-weight="600">Sanitary showroom</text>
  <text x="480" y="692" text-anchor="middle" fill="#64748b" font-family="system-ui,sans-serif" font-size="16">Faisal · Sonex · Porta · Dadex</text>
</svg>
