<svg xmlns="http://www.w3.org/2000/svg" width="600" height="600" viewBox="0 0 600 600">
  <rect width="600" height="600" fill="#f8fafc"/>
  <rect x="40" y="40" width="520" height="520" rx="20" fill="#ffffff" stroke="#e2e8f0" stroke-width="2"/>
  <!-- wall mount -->
  <rect x="260" y="90" width="80" height="36" rx="8" fill="#cbd5e1"/>
  <rect x="276" y="98" width="48" height="20" rx="4" fill="#94a3b8"/>
  <!-- hose -->
  <path d="M300 126 C260 180 240 240 250 320 C255 360 280 390 300 410" fill="none" stroke="#64748b" stroke-width="10" stroke-linecap="round"/>
  <!-- chrome hand shower -->
  <g transform="translate(255,400)">
    <rect x="0" y="0" width="90" height="28" rx="14" fill="url(#chrome)"/>
    <rect x="8" y="6" width="74" height="16" rx="8" fill="#e2e8f0"/>
    <circle cx="45" cy="52" r="34" fill="url(#chrome)"/>
    <circle cx="45" cy="52" r="22" fill="#94a3b8"/>
    <circle cx="45" cy="52" r="8" fill="#e2e8f0"/>
  </g>
  <defs>
    <linearGradient id="chrome" x1="0" y1="0" x2="0" y2="1">
      <stop offset="0%" stop-color="#f8fafc"/>
      <stop offset="50%" stop-color="#94a3b8"/>
      <stop offset="100%" stop-color="#64748b"/>
    </linearGradient>
  </defs>
  <text x="300" y="470" text-anchor="middle" fill="#334155" font-family="system-ui,sans-serif" font-size="18" font-weight="600">Chrome Muslim shower kit</text>
  <text x="300" y="498" text-anchor="middle" fill="#64748b" font-family="system-ui,sans-serif" font-size="14">MS-CH-12 · Sonex</text>
</svg>
